<?xml version="1.0" encoding="UTF-8"?>
<svg width="32px" height="32px" viewBox="0 0 32 32" version="1.1" xmlns="http://www.w3.org/2000/svg">
    <title>Phone Update Icon</title>
    <g stroke="none" stroke-width="1" fill="none" fill-rule="evenodd">
        <circle fill="#4F46E5" cx="16" cy="16" r="16"/>
        <path d="M22,10 L22,22 C22,23.1045695 21.1045695,24 20,24 L12,24 C10.8954305,24 10,23.1045695 10,22 L10,10 C10,8.8954305 10.8954305,8 12,8 L20,8 C21.1045695,8 22,8.8954305 22,10 Z M16,21 C16.5522847,21 17,20.5522847 17,20 C17,19.4477153 16.5522847,19 16,19 C15.4477153,19 15,19.4477153 15,20 C15,20.5522847 15.4477153,21 16,21 Z" fill="#FFFFFF" fill-rule="nonzero"/>
    </g>
</svg>